# WaveFront *.obj file (generated by Autodesk ATF)

mtllib World.mtl

g Solid1

v -15000.000000 -15000.000000 0.000000
v -15000.000000 -15000.000000 7050.000000
v -15000.000000 15000.000000 0.000000
v -15000.000000 15000.000000 7050.000000
v -14850.000000 -14850.000000 50.000000
v -14850.000000 -14850.000000 7050.000000
v -14850.000000 14850.000000 50.000000
v -14850.000000 14850.000000 7050.000000
v -13650.000000 0.000000 50.000000
v -13650.000000 0.000000 7050.000000
v -13650.000000 150.000000 50.000000
v -13650.000000 150.000000 7050.000000
v -5150.000000 -14850.000000 50.000000
v -5150.000000 -14850.000000 7050.000000
v -5150.000000 -9850.000000 50.000000
v -5150.000000 -9850.000000 4550.000000
v -5150.000000 -4850.000000 50.000000
v -5150.000000 -4850.000000 4550.000000
v -5150.000000 0.000000 50.000000
v -5150.000000 0.000000 7050.000000
v -5150.000000 150.000000 50.000000
v -5150.000000 150.000000 7050.000000
v -5150.000000 4850.000000 50.000000
v -5150.000000 4850.000000 4550.000000
v -5150.000000 9850.000000 50.000000
v -5150.000000 9850.000000 4550.000000
v -5150.000000 14850.000000 50.000000
v -5150.000000 14850.000000 7050.000000
v -5000.000000 -15000.000000 50.000000
v -5000.000000 -15000.000000 7050.000000
v -5000.000000 -9850.000000 50.000000
v -5000.000000 -9850.000000 4550.000000
v -5000.000000 -4850.000000 50.000000
v -5000.000000 -4850.000000 4550.000000
v -5000.000000 4850.000000 50.000000
v -5000.000000 4850.000000 4550.000000
v -5000.000000 9850.000000 50.000000
v -5000.000000 9850.000000 4550.000000
v -5000.000000 15000.000000 50.000000
v -5000.000000 15000.000000 7050.000000
v 5000.000000 -15000.000000 50.000000
v 5000.000000 -15000.000000 7050.000000
v 5000.000000 -9850.000000 50.000000
v 5000.000000 -9850.000000 4550.000000
v 5000.000000 -4850.000000 50.000000
v 5000.000000 -4850.000000 4550.000000
v 5000.000000 4850.000000 50.000000
v 5000.000000 4850.000000 4550.000000
v 5000.000000 9849.946899 4550.000000
v 5000.000000 9849.946899 7050.000000
v 5000.000000 9850.000000 50.000000
v 5000.000000 9850.000000 7050.000000
v 5000.000000 15000.000000 50.000000
v 5000.000000 15000.000000 7050.000000
v 5150.000000 -14850.000000 50.000000
v 5150.000000 -14850.000000 7050.000000
v 5150.000000 -9850.000000 50.000000
v 5150.000000 -9850.000000 4550.000000
v 5150.000000 -4850.000000 50.000000
v 5150.000000 -4850.000000 4550.000000
v 5150.000000 4850.000000 50.000000
v 5150.000000 4850.000000 4550.000000
v 5150.000000 9849.946899 4550.000000
v 5150.000000 9849.946899 7050.000000
v 5150.000000 9850.000000 50.000000
v 5150.000000 9850.000000 7050.000000
v 5150.000000 14850.000000 50.000000
v 5150.000000 14850.000000 7050.000000
v 14850.000000 -14850.000000 50.000000
v 14850.000000 -14850.000000 7050.000000
v 14850.000000 14850.000000 50.000000
v 14850.000000 14850.000000 7050.000000
v 15000.000000 -15000.000000 0.000000
v 15000.000000 -15000.000000 7050.000000
v 15000.000000 15000.000000 0.000000
v 15000.000000 15000.000000 7050.000000
vt -485.000000 -1485.000000 0.000000
vt -485.000000 984.994690 0.000000
vt -500.000000 984.994690 0.000000
vt -500.000000 -1500.000000 0.000000
vt 500.000000 -1500.000000 0.000000
vt 500.000000 1500.000000 0.000000
vt -500.000000 1500.000000 0.000000
vt -500.000000 985.000000 0.000000
vt -485.000000 985.000000 0.000000
vt -485.000000 1485.000000 0.000000
vt 485.000000 1485.000000 0.000000
vt 485.000000 -1485.000000 0.000000
vt 0.000000 0.000000 0.000000
vt 515.000000 0.000000 0.000000
vt 515.000000 450.000000 0.000000
vt 1015.000000 450.000000 0.000000
vt 1015.000000 0.000000 0.000000
vt 1985.000000 0.000000 0.000000
vt 1985.000000 450.000000 0.000000
vt 2485.000000 450.000000 0.000000
vt 2485.000000 0.000000 0.000000
vt 3000.000000 0.000000 0.000000
vt 3000.000000 700.000000 0.000000
vt 0.000000 700.000000 0.000000
vt 0.000000 0.000000 0.000000
vt 500.000000 0.000000 0.000000
vt 500.000000 450.000000 0.000000
vt 1000.000000 450.000000 0.000000
vt 1000.000000 0.000000 0.000000
vt 1970.000000 0.000000 0.000000
vt 1970.000000 450.000000 0.000000
vt 2469.994629 450.000000 0.000000
vt 2469.994629 700.000000 0.000000
vt 0.000000 700.000000 0.000000
vt 0.000000 0.000000 0.000000
vt 515.000000 0.000000 0.000000
vt 515.000000 700.000000 0.000000
vt -1969.994751 700.000000 0.000000
vt -1969.994751 450.000000 0.000000
vt -1470.000000 450.000000 0.000000
vt -1470.000000 0.000000 0.000000
vt -500.000000 0.000000 0.000000
vt -500.000000 450.000000 0.000000
vt 0.000000 450.000000 0.000000
vt 485.000000 1485.000000 0.000000
vt 485.000000 15.000000 0.000000
vt -365.000000 15.000000 0.000000
vt -365.000000 0.000000 0.000000
vt 485.000000 0.000000 0.000000
vt 485.000000 -1485.000000 0.000000
vt -485.000000 -1485.000000 0.000000
vt -485.000000 1485.000000 0.000000
vt 500.000000 -1500.000000 0.000000
vt 500.000000 1500.000000 0.000000
vt -500.000000 1500.000000 0.000000
vt -500.000000 -1500.000000 0.000000
vt 15.000000 450.000000 0.000000
vt 0.000000 450.000000 0.000000
vt 0.000000 0.000000 0.000000
vt 15.000000 0.000000 0.000000
vt 15.000000 450.000000 0.000000
vt 0.000000 450.000000 0.000000
vt 0.000000 0.000000 0.000000
vt 15.000000 0.000000 0.000000
vt 15.000000 450.000000 0.000000
vt 0.000000 450.000000 0.000000
vt 0.000000 0.000000 0.000000
vt 15.000000 0.000000 0.000000
vt -1000.000000 0.000000 0.000000
vt -1000.000000 700.000000 0.000000
vt -2470.000000 700.000000 0.000000
vt -2470.000000 0.000000 0.000000
vt -1970.000000 0.000000 0.000000
vt -1970.000000 450.000000 0.000000
vt -1470.000000 450.000000 0.000000
vt -1470.000000 0.000000 0.000000
vt 15.000000 450.000000 0.000000
vt 0.000000 450.000000 0.000000
vt 0.000000 0.000000 0.000000
vt 15.000000 0.000000 0.000000
vt 0.000000 0.000000 0.000000
vt 970.000000 0.000000 0.000000
vt 970.000000 700.000000 0.000000
vt 0.000000 700.000000 0.000000
vt 0.000000 0.000000 0.000000
vt 2970.000000 0.000000 0.000000
vt 2970.000000 700.000000 0.000000
vt 0.000000 700.000000 0.000000
vt 0.000000 0.000000 0.000000
vt 970.000000 0.000000 0.000000
vt 970.000000 700.000000 0.000000
vt 0.000000 700.000000 0.000000
vt 0.000000 0.000000 0.000000
vt 500.000000 0.000000 0.000000
vt 500.000000 700.000000 0.000000
vt 0.000000 700.000000 0.000000
vt 0.000000 0.000000 0.000000
vt 15.000000 0.000000 0.000000
vt 15.000000 700.000000 0.000000
vt 0.000000 700.000000 0.000000
vt 0.000000 0.000000 0.000000
vt 515.000000 0.000000 0.000000
vt 515.000000 700.000000 0.000000
vt 0.000000 700.000000 0.000000
vt 15.000000 450.000000 0.000000
vt 0.000000 450.000000 0.000000
vt 0.000000 0.000000 0.000000
vt 15.000000 0.000000 0.000000
vt 15.000000 450.000000 0.000000
vt 0.000000 450.000000 0.000000
vt 0.000000 0.000000 0.000000
vt 15.000000 0.000000 0.000000
vt 15.000000 450.000000 0.000000
vt 0.000000 450.000000 0.000000
vt 0.000000 0.000000 0.000000
vt 15.000000 0.000000 0.000000
vt 7.500000 250.000000 0.000000
vt -7.500000 250.000000 0.000000
vt -7.500000 -250.000000 0.000000
vt 7.500000 -250.000000 0.000000
vt 0.000000 0.000000 0.000000
vt 970.000000 0.000000 0.000000
vt 970.000000 700.000000 0.000000
vt 0.000000 700.000000 0.000000
vt 7.500000 249.997345 0.000000
vt -7.500000 249.997345 0.000000
vt -7.500000 -249.997345 0.000000
vt 7.500000 -249.997345 0.000000
vt 7.500000 250.000000 0.000000
vt -7.500000 250.000000 0.000000
vt -7.500000 -250.000000 0.000000
vt 7.500000 -250.000000 0.000000
vt 7.500000 250.000000 0.000000
vt -7.500000 250.000000 0.000000
vt -7.500000 -250.000000 0.000000
vt 7.500000 -250.000000 0.000000
vt 0.000000 0.000000 0.000000
vt 15.000000 0.000000 0.000000
vt 15.000000 250.000000 0.000000
vt 0.000000 250.000000 0.000000
vt -1500.000000 -1500.000000 0.000000
vt 1500.000000 -1500.000000 0.000000
vt 1500.000000 1500.000000 0.000000
vt -1500.000000 1500.000000 0.000000
vt -985.000000 700.000000 0.000000
vt -985.000000 0.000000 0.000000
vt -500.000000 0.000000 0.000000
vt -500.000000 450.000000 0.000000
vt 0.000000 450.000000 0.000000
vt 0.000000 0.000000 0.000000
vt 500.000000 0.000000 0.000000
vt 500.000000 700.000000 0.000000
vt 0.000000 0.000000 0.000000
vt 970.000000 0.000000 0.000000
vt 970.000000 700.000000 0.000000
vt 0.000000 700.000000 0.000000
vt 0.000000 0.000000 0.000000
vt 2970.000000 0.000000 0.000000
vt 2970.000000 700.000000 0.000000
vt 0.000000 700.000000 0.000000
vt 0.000000 0.000000 0.000000
vt 3000.000000 0.000000 0.000000
vt 3000.000000 705.000000 0.000000
vt 2000.000000 705.000000 0.000000
vt 2000.000000 5.000000 0.000000
vt 1000.000000 5.000000 0.000000
vt 1000.000000 705.000000 0.000000
vt 0.000000 705.000000 0.000000
vt 0.000000 0.000000 0.000000
vt 3000.000000 0.000000 0.000000
vt 3000.000000 705.000000 0.000000
vt 0.000000 705.000000 0.000000
vt 0.000000 0.000000 0.000000
vt 3000.000000 0.000000 0.000000
vt 3000.000000 705.000000 0.000000
vt 2000.000000 705.000000 0.000000
vt 2000.000000 5.000000 0.000000
vt 1000.000000 5.000000 0.000000
vt 1000.000000 705.000000 0.000000
vt 0.000000 705.000000 0.000000
vt 0.000000 0.000000 0.000000
vt 3000.000000 0.000000 0.000000
vt 3000.000000 705.000000 0.000000
vt 0.000000 705.000000 0.000000
vt 15.000000 700.000000 0.000000
vt 0.000000 700.000000 0.000000
vt 0.000000 0.000000 0.000000
vt 15.000000 0.000000 0.000000
vt 850.000000 700.000000 0.000000
vt 0.000000 700.000000 0.000000
vt 0.000000 0.000000 0.000000
vt 850.000000 0.000000 0.000000
vt 850.000000 700.000000 0.000000
vt 0.000000 700.000000 0.000000
vt 0.000000 0.000000 0.000000
vt 850.000000 0.000000 0.000000
vt -515.000000 0.000000 0.000000
vt -1365.000000 0.000000 0.000000
vt -1365.000000 15.000000 0.000000
vt -515.000000 15.000000 0.000000
vt -515.000000 485.000000 0.000000
vt -500.000000 485.000000 0.000000
vt -500.000000 -485.000000 0.000000
vt -515.000000 -485.000000 0.000000
vt 500.000000 485.000000 0.000000
vt 515.000000 485.000000 0.000000
vt 515.000000 -485.000000 0.000000
vt 500.000000 -485.000000 0.000000
vt 500.000000 985.000000 0.000000
vt 500.000000 1500.000000 0.000000
vt -500.000000 1500.000000 0.000000
vt -500.000000 985.000000 0.000000
vt -515.000000 985.000000 0.000000
vt -515.000000 1485.000000 0.000000
vt -1485.000000 1485.000000 0.000000
vt -1485.000000 -1485.000000 0.000000
vt -515.000000 -1485.000000 0.000000
vt -515.000000 -985.000000 0.000000
vt -500.000000 -985.000000 0.000000
vt -500.000000 -1500.000000 0.000000
vt 500.000000 -1500.000000 0.000000
vt 500.000000 -985.000000 0.000000
vt 515.000000 -985.000000 0.000000
vt 515.000000 -1485.000000 0.000000
vt 1485.000000 -1485.000000 0.000000
vt 1485.000000 1485.000000 0.000000
vt 515.000000 1485.000000 0.000000
vt 515.000000 985.000000 0.000000
vn 0.000000 0.000000 0.100000
vn 0.000000 0.000000 0.100000
vn 0.000000 0.000000 0.100000
vn 0.000000 0.000000 0.100000
vn 0.000000 0.000000 0.100000
vn 0.000000 0.000000 0.100000
vn 0.000000 0.000000 0.100000
vn 0.000000 0.000000 0.100000
vn 0.000000 0.000000 0.100000
vn 0.000000 0.000000 0.100000
vn 0.000000 0.000000 0.100000
vn 0.000000 0.000000 0.100000
vn 0.100000 0.000000 0.000000
vn 0.100000 0.000000 0.000000
vn 0.100000 0.000000 0.000000
vn 0.100000 0.000000 0.000000
vn 0.100000 0.000000 0.000000
vn 0.100000 0.000000 0.000000
vn 0.100000 0.000000 0.000000
vn 0.100000 0.000000 0.000000
vn 0.100000 0.000000 0.000000
vn 0.100000 0.000000 0.000000
vn 0.100000 0.000000 0.000000
vn 0.100000 0.000000 0.000000
vn 0.100000 0.000000 0.000000
vn 0.100000 0.000000 0.000000
vn 0.100000 0.000000 0.000000
vn 0.100000 0.000000 0.000000
vn 0.100000 0.000000 0.000000
vn 0.100000 0.000000 0.000000
vn 0.100000 0.000000 0.000000
vn 0.100000 0.000000 0.000000
vn 0.100000 0.000000 0.000000
vn 0.100000 0.000000 0.000000
vn -0.100000 0.000000 0.000000
vn -0.100000 0.000000 0.000000
vn -0.100000 0.000000 0.000000
vn -0.100000 0.000000 0.000000
vn -0.100000 0.000000 0.000000
vn -0.100000 0.000000 0.000000
vn -0.100000 0.000000 0.000000
vn -0.100000 0.000000 0.000000
vn -0.100000 0.000000 0.000000
vn -0.100000 0.000000 0.000000
vn 0.000000 0.000000 0.100000
vn 0.000000 0.000000 0.100000
vn 0.000000 0.000000 0.100000
vn 0.000000 0.000000 0.100000
vn 0.000000 0.000000 0.100000
vn 0.000000 0.000000 0.100000
vn 0.000000 0.000000 0.100000
vn 0.000000 0.000000 0.100000
vn 0.000000 0.000000 0.100000
vn 0.000000 0.000000 0.100000
vn 0.000000 0.000000 0.100000
vn 0.000000 0.000000 0.100000
vn 0.000000 -0.100000 0.000000
vn 0.000000 -0.100000 0.000000
vn 0.000000 -0.100000 0.000000
vn 0.000000 -0.100000 0.000000
vn 0.000000 -0.100000 0.000000
vn 0.000000 -0.100000 0.000000
vn 0.000000 -0.100000 0.000000
vn 0.000000 -0.100000 0.000000
vn 0.000000 -0.100000 0.000000
vn 0.000000 -0.100000 0.000000
vn 0.000000 -0.100000 0.000000
vn 0.000000 -0.100000 0.000000
vn -0.100000 0.000000 0.000000
vn -0.100000 0.000000 0.000000
vn -0.100000 0.000000 0.000000
vn -0.100000 0.000000 0.000000
vn -0.100000 0.000000 0.000000
vn -0.100000 0.000000 0.000000
vn -0.100000 0.000000 0.000000
vn -0.100000 0.000000 0.000000
vn 0.000000 0.100000 0.000000
vn 0.000000 0.100000 0.000000
vn 0.000000 0.100000 0.000000
vn 0.000000 0.100000 0.000000
vn 0.000000 0.100000 0.000000
vn 0.000000 0.100000 0.000000
vn 0.000000 0.100000 0.000000
vn 0.000000 0.100000 0.000000
vn -0.100000 0.000000 0.000000
vn -0.100000 0.000000 0.000000
vn -0.100000 0.000000 0.000000
vn -0.100000 0.000000 0.000000
vn 0.000000 -0.100000 0.000000
vn 0.000000 -0.100000 0.000000
vn 0.000000 -0.100000 0.000000
vn 0.000000 -0.100000 0.000000
vn 0.100000 0.000000 0.000000
vn 0.100000 0.000000 0.000000
vn 0.100000 0.000000 0.000000
vn 0.100000 0.000000 0.000000
vn 0.000000 -0.100000 0.000000
vn 0.000000 -0.100000 0.000000
vn 0.000000 -0.100000 0.000000
vn 0.000000 -0.100000 0.000000
vn -0.100000 0.000000 0.000000
vn -0.100000 0.000000 0.000000
vn -0.100000 0.000000 0.000000
vn -0.100000 0.000000 0.000000
vn 0.000000 0.100000 0.000000
vn 0.000000 0.100000 0.000000
vn 0.000000 0.100000 0.000000
vn 0.000000 0.100000 0.000000
vn 0.000000 0.100000 0.000000
vn 0.000000 0.100000 0.000000
vn 0.000000 0.100000 0.000000
vn 0.000000 0.100000 0.000000
vn 0.000000 0.100000 0.000000
vn 0.000000 0.100000 0.000000
vn 0.000000 0.100000 0.000000
vn 0.000000 0.100000 0.000000
vn 0.000000 0.000000 -0.100000
vn 0.000000 0.000000 -0.100000
vn 0.000000 0.000000 -0.100000
vn 0.000000 0.000000 -0.100000
vn 0.000000 0.100000 0.000000
vn 0.000000 0.100000 0.000000
vn 0.000000 0.100000 0.000000
vn 0.000000 0.100000 0.000000
vn 0.000000 0.000000 -0.100000
vn 0.000000 0.000000 -0.100000
vn 0.000000 0.000000 -0.100000
vn 0.000000 0.000000 -0.100000
vn 0.000000 0.000000 -0.100000
vn 0.000000 0.000000 -0.100000
vn 0.000000 0.000000 -0.100000
vn 0.000000 0.000000 -0.100000
vn 0.000000 0.000000 -0.100000
vn 0.000000 0.000000 -0.100000
vn 0.000000 0.000000 -0.100000
vn 0.000000 0.000000 -0.100000
vn 0.000000 0.100000 0.000000
vn 0.000000 0.100000 0.000000
vn 0.000000 0.100000 0.000000
vn 0.000000 0.100000 0.000000
vn 0.000000 0.000000 -0.100000
vn 0.000000 0.000000 -0.100000
vn 0.000000 0.000000 -0.100000
vn 0.000000 0.000000 -0.100000
vn -0.100000 0.000000 0.000000
vn -0.100000 0.000000 0.000000
vn -0.100000 0.000000 0.000000
vn -0.100000 0.000000 0.000000
vn -0.100000 0.000000 0.000000
vn -0.100000 0.000000 0.000000
vn -0.100000 0.000000 0.000000
vn -0.100000 0.000000 0.000000
vn 0.000000 -0.100000 0.000000
vn 0.000000 -0.100000 0.000000
vn 0.000000 -0.100000 0.000000
vn 0.000000 -0.100000 0.000000
vn 0.100000 0.000000 0.000000
vn 0.100000 0.000000 0.000000
vn 0.100000 0.000000 0.000000
vn 0.100000 0.000000 0.000000
vn 0.000000 -0.100000 0.000000
vn 0.000000 -0.100000 0.000000
vn 0.000000 -0.100000 0.000000
vn 0.000000 -0.100000 0.000000
vn 0.000000 -0.100000 0.000000
vn 0.000000 -0.100000 0.000000
vn 0.000000 -0.100000 0.000000
vn 0.000000 -0.100000 0.000000
vn -0.100000 0.000000 0.000000
vn -0.100000 0.000000 0.000000
vn -0.100000 0.000000 0.000000
vn -0.100000 0.000000 0.000000
vn 0.000000 0.100000 0.000000
vn 0.000000 0.100000 0.000000
vn 0.000000 0.100000 0.000000
vn 0.000000 0.100000 0.000000
vn 0.000000 0.100000 0.000000
vn 0.000000 0.100000 0.000000
vn 0.000000 0.100000 0.000000
vn 0.000000 0.100000 0.000000
vn 0.100000 0.000000 0.000000
vn 0.100000 0.000000 0.000000
vn 0.100000 0.000000 0.000000
vn 0.100000 0.000000 0.000000
vn -0.100000 0.000000 0.000000
vn -0.100000 0.000000 0.000000
vn -0.100000 0.000000 0.000000
vn -0.100000 0.000000 0.000000
vn 0.000000 0.100000 0.000000
vn 0.000000 0.100000 0.000000
vn 0.000000 0.100000 0.000000
vn 0.000000 0.100000 0.000000
vn 0.000000 -0.100000 0.000000
vn 0.000000 -0.100000 0.000000
vn 0.000000 -0.100000 0.000000
vn 0.000000 -0.100000 0.000000
vn 0.000000 0.000000 0.100000
vn 0.000000 0.000000 0.100000
vn 0.000000 0.000000 0.100000
vn 0.000000 0.000000 0.100000
vn 0.000000 0.000000 0.100000
vn 0.000000 0.000000 0.100000
vn 0.000000 0.000000 0.100000
vn 0.000000 0.000000 0.100000
vn 0.000000 0.000000 0.100000
vn 0.000000 0.000000 0.100000
vn 0.000000 0.000000 0.100000
vn 0.000000 0.000000 0.100000
vn 0.000000 0.000000 0.100000
vn 0.000000 0.000000 0.100000
vn 0.000000 0.000000 0.100000
vn 0.000000 0.000000 0.100000
vn 0.000000 0.000000 0.100000
vn 0.000000 0.000000 0.100000
vn 0.000000 0.000000 0.100000
vn 0.000000 0.000000 0.100000
vn 0.000000 0.000000 0.100000
vn 0.000000 0.000000 0.100000
vn 0.000000 0.000000 0.100000
vn 0.000000 0.000000 0.100000
vn 0.000000 0.000000 0.100000
vn 0.000000 0.000000 0.100000
vn 0.000000 0.000000 0.100000
vn 0.000000 0.000000 0.100000
vn 0.000000 0.000000 0.100000
vn 0.000000 0.000000 0.100000
vn 0.000000 0.000000 0.100000
vn 0.000000 0.000000 0.100000
usemtl 191,191,191
f 64/2/2 50/3/3 56/1/1
f 56/1/1 50/3/3 42/4/4
f 56/1/1 42/4/4 74/5/5
f 76/6/6 72/11/11 74/5/5
f 74/5/5 72/11/11 70/12/12
f 74/5/5 70/12/12 56/1/1
f 76/6/6 54/7/7 72/11/11
f 72/11/11 54/7/7 68/10/10
f 68/10/10 54/7/7 52/8/8
f 68/10/10 52/8/8 66/9/9
f 31/14/14 32/15/15 29/13/13
f 29/13/13 32/15/15 30/24/24
f 30/24/24 32/15/15 34/16/16
f 30/24/24 34/16/16 36/19/19
f 36/19/19 34/16/16 35/18/18
f 35/18/18 34/16/16 33/17/17
f 30/24/24 36/19/19 40/23/23
f 40/23/23 36/19/19 38/20/20
f 40/23/23 38/20/20 39/22/22
f 39/22/22 38/20/20 37/21/21
f 57/26/26 58/27/27 55/25/25
f 55/25/25 58/27/27 56/34/34
f 56/34/34 58/27/27 60/28/28
f 56/34/34 60/28/28 64/33/33
f 64/33/33 60/28/28 62/31/31
f 64/33/33 62/31/31 63/32/32
f 59/29/29 61/30/30 60/28/28
f 60/28/28 61/30/30 62/31/31
f 43/35/35 41/36/36 44/44/44
f 44/44/44 41/36/36 42/37/37
f 44/44/44 42/37/37 46/43/43
f 46/43/43 42/37/37 50/38/38
f 46/43/43 50/38/38 48/40/40
f 48/40/40 50/38/38 49/39/39
f 47/41/41 45/42/42 48/40/40
f 48/40/40 45/42/42 46/43/43
f 22/46/46 40/54/54 28/45/45
f 28/45/45 40/54/54 4/55/55
f 28/45/45 4/55/55 8/52/52
f 8/52/52 4/55/55 2/56/56
f 8/52/52 2/56/56 6/51/51
f 6/51/51 2/56/56 30/53/53
f 6/51/51 30/53/53 14/50/50
f 14/50/50 30/53/53 20/49/49
f 20/49/49 30/53/53 40/54/54
f 20/49/49 40/54/54 22/46/46
f 22/46/46 12/47/47 20/49/49
f 20/49/49 12/47/47 10/48/48
f 60/57/57 46/58/58 59/60/60
f 59/60/60 46/58/58 45/59/59
f 38/61/61 26/62/62 37/64/64
f 37/64/64 26/62/62 25/63/63
f 34/65/65 18/66/66 33/68/68
f 33/68/68 18/66/66 17/67/67
f 23/76/76 21/69/69 24/75/75
f 24/75/75 21/69/69 22/70/70
f 24/75/75 22/70/70 26/74/74
f 26/74/74 22/70/70 28/71/71
f 26/74/74 28/71/71 27/72/72
f 27/72/72 25/73/73 26/74/74
f 44/77/77 58/78/78 43/80/80
f 43/80/80 58/78/78 57/79/79
f 69/81/81 55/82/82 70/84/84
f 70/84/84 55/82/82 56/83/83
f 71/85/85 69/86/86 72/88/88
f 72/88/88 69/86/86 70/87/87
f 67/89/89 71/90/90 68/92/92
f 68/92/92 71/90/90 72/91/91
f 65/93/93 67/94/94 66/96/96
f 66/96/96 67/94/94 68/95/95
f 51/97/97 65/98/98 52/100/100
f 52/100/100 65/98/98 66/99/99
f 53/101/101 51/102/102 54/104/104
f 54/104/104 51/102/102 52/103/103
f 24/105/105 36/106/106 23/108/108
f 23/108/108 36/106/106 35/107/107
f 48/109/109 62/110/110 47/112/112
f 47/112/112 62/110/110 61/111/111
f 16/113/113 32/114/114 15/116/116
f 15/116/116 32/114/114 31/115/115
f 18/117/117 34/118/118 16/120/120
f 16/120/120 34/118/118 32/119/119
f 13/121/121 5/122/122 14/124/124
f 14/124/124 5/122/122 6/123/123
f 49/125/125 63/126/126 48/128/128
f 48/128/128 63/126/126 62/127/127
f 26/129/129 38/130/130 24/132/132
f 24/132/132 38/130/130 36/131/131
f 46/133/133 60/134/134 44/136/136
f 44/136/136 60/134/134 58/135/135
f 50/137/137 64/138/138 49/140/140
f 49/140/140 64/138/138 63/139/139
f 73/141/141 1/142/142 75/144/144
f 75/144/144 1/142/142 3/143/143
f 19/146/146 18/148/148 20/145/145
f 20/145/145 18/148/148 16/149/149
f 20/145/145 16/149/149 14/152/152
f 14/152/152 16/149/149 13/151/151
f 13/151/151 16/149/149 15/150/150
f 19/146/146 17/147/147 18/148/148
f 7/153/153 27/154/154 8/156/156
f 8/156/156 27/154/154 28/155/155
f 5/157/157 7/158/158 6/160/160
f 6/160/160 7/158/158 8/159/159
f 2/168/168 1/161/161 29/166/166
f 29/166/166 1/161/161 73/162/162
f 29/166/166 73/162/162 41/165/165
f 41/165/165 73/162/162 74/163/163
f 41/165/165 74/163/163 42/164/164
f 29/166/166 30/167/167 2/168/168
f 3/169/169 1/170/170 4/172/172
f 4/172/172 1/170/170 2/171/171
f 76/180/180 75/173/173 53/178/178
f 53/178/178 75/173/173 3/174/174
f 53/178/178 3/174/174 39/177/177
f 39/177/177 3/174/174 4/175/175
f 39/177/177 4/175/175 40/176/176
f 53/178/178 54/179/179 76/180/180
f 73/181/181 75/182/182 74/184/184
f 74/184/184 75/182/182 76/183/183
f 10/185/185 12/186/186 9/188/188
f 9/188/188 12/186/186 11/187/187
f 12/189/189 22/190/190 11/192/192
f 11/192/192 22/190/190 21/191/191
f 20/193/193 10/194/194 19/196/196
f 19/196/196 10/194/194 9/195/195
f 19/197/197 9/198/198 17/204/204
f 17/204/204 9/198/198 15/218/218
f 17/204/204 15/218/218 31/219/219
f 11/199/199 7/215/215 9/198/198
f 9/198/198 7/215/215 5/216/216
f 9/198/198 5/216/216 15/218/218
f 15/218/218 5/216/216 13/217/217
f 21/200/200 23/201/201 11/199/199
f 11/199/199 23/201/201 25/213/213
f 11/199/199 25/213/213 7/215/215
f 7/215/215 25/213/213 27/214/214
f 23/201/201 35/202/202 25/213/213
f 25/213/213 35/202/202 37/212/212
f 37/212/212 35/202/202 47/205/205
f 37/212/212 47/205/205 51/209/209
f 51/209/209 47/205/205 61/206/206
f 51/209/209 61/206/206 65/228/228
f 65/228/228 61/206/206 71/226/226
f 65/228/228 71/226/226 67/227/227
f 47/205/205 35/202/202 45/208/208
f 45/208/208 35/202/202 33/203/203
f 45/208/208 33/203/203 43/222/222
f 43/222/222 33/203/203 31/219/219
f 43/222/222 31/219/219 41/221/221
f 41/221/221 31/219/219 29/220/220
f 33/203/203 17/204/204 31/219/219
f 71/226/226 61/206/206 69/225/225
f 69/225/225 61/206/206 59/207/207
f 69/225/225 59/207/207 57/223/223
f 57/223/223 59/207/207 45/208/208
f 57/223/223 45/208/208 43/222/222
f 53/210/210 39/211/211 51/209/209
f 51/209/209 39/211/211 37/212/212
f 57/223/223 55/224/224 69/225/225
# 76 vertices
# 228 texture params
# 228 normals
# 160 facets

# 1 groups
